<svg xmlns="http://www.w3.org/2000/svg" width="15.75" height="15.75" viewBox="0 0 15.75 15.75">
  <path id="external-white" d="M14,15.75H1.75A1.752,1.752,0,0,1,0,14V1.75A1.752,1.752,0,0,1,1.75,0H7A.875.875,0,0,1,7,1.75H2.625a.876.876,0,0,0-.875.875v10.5A.876.876,0,0,0,2.625,14h10.5A.876.876,0,0,0,14,13.125V8.75a.875.875,0,1,1,1.75,0V14A1.752,1.752,0,0,1,14,15.75ZM5.394,11.229a.872.872,0,0,1-.617-1.49L12.766,1.75H10.5A.875.875,0,0,1,10.5,0h4.375a.876.876,0,0,1,.875.875V5.25a.875.875,0,1,1-1.75,0V2.984L6.011,10.972A.865.865,0,0,1,5.394,11.229Z" fill="#fff"/>
</svg>
