<?xml version="1.0" standalone="no"?>
<!DOCTYPE svg PUBLIC "-//W3C//DTD SVG 20010904//EN"
 "http://www.w3.org/TR/2001/REC-SVG-20010904/DTD/svg10.dtd">
<svg version="1.0" xmlns="http://www.w3.org/2000/svg"
 width="152.000000pt" height="152.000000pt" viewBox="0 0 152.000000 152.000000"
 preserveAspectRatio="xMidYMid meet">
<metadata>
Created by potrace 1.11, written by Peter Selinger 2001-2013
</metadata>
<g transform="translate(0.000000,152.000000) scale(0.100000,-0.100000)"
fill="#000000" stroke="none">
<path d="M40 765 l0 -535 30 0 30 0 0 535 0 535 -30 0 -30 0 0 -535z"/>
<path d="M805 1290 c3 -5 1 -10 -4 -10 -6 0 -11 -5 -11 -11 0 -5 5 -7 12 -3 8
5 9 2 5 -9 -4 -10 -10 -24 -13 -32 -3 -8 -1 -15 5 -15 6 0 11 8 11 18 1 16 1
16 11 0 14 -25 33 -23 19 1 -5 11 -7 27 -4 35 3 9 1 16 -6 16 -6 0 -8 5 -5 10
3 6 -1 10 -10 10 -9 0 -13 -4 -10 -10z"/>
<path d="M1090 1255 c8 -11 31 -41 52 -66 21 -26 38 -51 38 -55 0 -5 -18 -22
-40 -37 -22 -16 -40 -35 -40 -43 0 -17 4 -17 33 -3 21 10 21 9 3 -5 -17 -14
-17 -16 -2 -31 9 -9 14 -21 10 -26 -6 -11 13 -39 28 -39 5 0 7 3 5 8 -3 4 1
12 8 19 10 9 14 8 18 -8 3 -10 1 -19 -5 -19 -5 0 -6 -5 -2 -11 5 -8 10 -6 16
5 11 19 29 22 25 4 -1 -8 7 -12 21 -11 13 2 21 -1 17 -7 -3 -6 1 -13 9 -16 9
-3 13 -11 10 -16 -4 -6 -10 -5 -15 3 -4 7 -11 10 -16 6 -4 -5 -1 -12 7 -17 8
-6 11 -10 6 -10 -5 0 -39 17 -76 39 l-67 38 -14 -33 c-15 -39 -24 -43 -32 -14
-3 12 -14 20 -25 20 -12 0 -24 5 -27 10 -8 13 -42 13 -50 0 -3 -6 5 -14 19
-20 21 -8 46 -37 46 -54 0 -3 -9 -6 -19 -6 -11 0 -23 -4 -26 -10 -10 -16 34
-89 64 -104 27 -14 28 -14 27 7 -1 12 -8 22 -16 22 -14 0 -50 41 -50 58 0 4
12 7 26 7 22 0 24 -2 14 -15 -16 -19 -3 -37 23 -34 12 2 33 -3 47 -12 14 -8
34 -19 44 -25 31 -16 31 -34 1 -34 -60 0 -80 -36 -53 -95 14 -32 3 -42 -56
-51 -21 -4 -50 -17 -64 -29 l-26 -22 30 1 c19 1 28 6 26 15 -2 9 3 11 14 7 10
-4 42 3 72 15 45 19 53 25 48 43 -13 51 27 63 51 16 11 -21 33 -42 56 -53 33
-17 37 -23 37 -57 0 -22 -6 -43 -16 -50 -18 -16 -41 -56 -26 -46 6 3 12 0 15
-6 3 -10 7 -10 20 0 9 8 13 20 10 28 -3 8 1 14 10 14 18 0 25 31 19 87 -3 27
-9 43 -17 43 -22 0 -27 18 -20 61 6 33 9 38 21 28 8 -6 14 -20 14 -30 0 -21
35 -44 44 -30 4 5 0 12 -6 14 -7 3 -1 6 14 6 23 1 53 21 31 21 -5 0 -7 15 -5
34 3 30 -2 41 -43 85 -39 42 -46 55 -43 83 2 25 8 34 24 36 18 3 21 -1 17 -21
-5 -26 7 -39 62 -67 42 -21 45 -14 8 18 -16 13 -22 20 -14 16 11 -5 13 -3 8
10 -4 10 -7 24 -7 31 0 11 -48 35 -71 35 -18 0 -49 -41 -49 -65 0 -15 17 -44
44 -74 51 -57 63 -86 46 -106 -20 -24 -37 -17 -69 28 -26 39 -28 44 -13 54 16
10 16 12 0 29 -13 13 -20 15 -31 6 -10 -9 -17 -5 -31 18 -19 33 -16 41 32 94
17 19 32 45 32 56 0 11 5 20 10 20 20 0 7 91 -16 116 -12 12 -20 25 -17 28 3
3 -6 8 -20 11 -14 4 -33 16 -43 26 -13 15 -19 16 -25 7 -6 -9 -28 6 -76 52
-37 36 -60 56 -53 45z m107 -161 c-3 -3 -12 -4 -19 -1 -8 3 -5 6 6 6 11 1 17
-2 13 -5z m53 -43 c0 -15 -76 -60 -89 -52 -19 12 21 51 46 45 11 -3 24 -1 27
5 9 13 16 14 16 2z m-170 -141 c0 -5 -4 -10 -10 -10 -5 0 -10 5 -10 10 0 6 5
10 10 10 6 0 10 -4 10 -10z m24 -95 c-4 -8 -12 -15 -20 -15 -20 0 -17 18 4 23
9 3 18 5 19 6 1 0 0 -6 -3 -14z m224 -54 c3 -8 -1 -12 -9 -9 -7 2 -15 10 -17
17 -3 8 1 12 9 9 7 -2 15 -10 17 -17z m-18 -70 c0 -6 -4 -13 -10 -16 -5 -3
-10 1 -10 9 0 9 5 16 10 16 6 0 10 -4 10 -9z m-40 -66 c0 -8 -4 -15 -10 -15
-5 0 -10 7 -10 15 0 8 5 15 10 15 6 0 10 -7 10 -15z"/>
<path d="M404 1237 c1 -8 8 -22 15 -31 7 -8 10 -20 6 -26 -3 -5 -2 -10 3 -10
18 0 21 13 7 34 -8 11 -14 25 -14 31 0 5 -4 11 -9 13 -6 2 -9 -3 -8 -11z"/>
<path d="M446 1233 c-6 -14 -5 -15 5 -6 7 7 10 15 7 18 -3 3 -9 -2 -12 -12z"/>
<path d="M470 1236 c0 -2 7 -7 16 -10 8 -3 12 -2 9 4 -6 10 -25 14 -25 6z"/>
<path d="M366 1201 c-4 -5 3 -7 14 -4 23 6 26 13 6 13 -8 0 -17 -4 -20 -9z"/>
<path d="M460 1189 c0 -25 -30 -32 -53 -12 -19 18 -20 17 -8 -4 8 -16 8 -23 1
-23 -6 0 -13 7 -16 15 -4 8 -11 15 -17 15 -6 0 0 -11 12 -24 l22 -24 50 21
c50 21 68 53 29 53 -12 0 -20 -7 -20 -17z"/>
<path d="M666 1184 c-11 -7 -17 -17 -13 -20 3 -4 14 1 23 10 9 9 15 19 13 21
-2 2 -13 -3 -23 -11z"/>
<path d="M700 1189 c0 -5 5 -7 10 -4 6 3 10 8 10 11 0 2 -4 4 -10 4 -5 0 -10
-5 -10 -11z"/>
<path d="M786 1184 c-9 -24 -7 -29 6 -16 15 15 48 16 48 1 0 -8 4 -9 13 0 8 6
17 8 20 4 4 -3 7 -1 7 6 0 8 -7 10 -21 6 -15 -5 -19 -4 -15 4 5 7 -3 11 -22
11 -18 0 -32 -6 -36 -16z"/>
<path d="M890 1190 c0 -5 5 -10 10 -10 6 0 10 5 10 10 0 6 -4 10 -10 10 -5 0
-10 -4 -10 -10z"/>
<path d="M920 1192 c0 -4 9 -8 20 -9 11 -1 20 2 20 5 0 4 -9 8 -20 9 -11 1
-20 -2 -20 -5z"/>
<path d="M755 1180 c3 -5 8 -10 11 -10 2 0 4 5 4 10 0 6 -5 10 -11 10 -5 0 -7
-4 -4 -10z"/>
<path d="M965 1170 c-3 -5 -1 -10 4 -10 6 0 11 5 11 10 0 6 -2 10 -4 10 -3 0
-8 -4 -11 -10z"/>
<path d="M453 1145 c-29 -13 -53 -22 -53 -19 0 3 -10 -4 -22 -16 -16 -14 -19
-23 -11 -31 7 -7 8 -23 3 -45 -6 -26 -5 -32 4 -25 8 7 10 0 8 -30 -4 -42 13
-55 22 -16 2 12 4 5 2 -17 l-2 -39 19 24 20 24 -8 -25 c-26 -85 -115 -235
-145 -245 -28 -9 -40 2 -40 34 0 20 16 46 55 90 53 60 65 90 46 120 -7 10 -21
12 -55 7 -37 -6 -49 -13 -61 -36 -18 -35 -19 -43 -2 -35 6 4 0 -4 -15 -17 -42
-36 -34 -41 22 -13 53 27 74 53 64 80 -5 13 -2 16 12 13 12 -2 20 -13 22 -30
2 -20 -9 -40 -47 -82 -51 -56 -68 -93 -57 -121 3 -8 0 -15 -7 -15 -8 0 -7 -3
2 -9 8 -5 21 -6 30 -3 14 5 14 3 2 -11 -12 -15 -11 -17 7 -17 13 0 33 17 53
45 18 25 33 45 34 45 2 0 -19 -68 -38 -122 -5 -16 -17 -28 -27 -28 -19 0 -40
-39 -40 -77 0 -17 4 -23 13 -20 10 4 13 -2 9 -19 -4 -20 -1 -23 13 -18 14 6
16 3 11 -14 -6 -19 -3 -20 40 -17 29 2 52 9 59 19 7 9 15 13 18 9 4 -3 7 -1 7
5 0 21 -39 35 -57 21 -13 -11 -18 -10 -34 10 -31 38 -25 68 20 90 56 29 91 75
91 119 1 35 2 36 15 18 19 -25 19 -50 1 -66 -13 -10 -13 -16 1 -46 10 -21 19
-30 24 -23 4 7 9 4 14 -10 5 -16 12 -20 26 -16 11 4 19 2 19 -5 0 -8 10 -10
25 -8 14 3 25 1 25 -6 0 -6 7 -3 14 6 7 10 16 14 21 10 4 -4 5 2 3 13 -3 16
-11 20 -40 20 -25 1 -45 8 -63 25 -30 28 -32 46 -5 60 27 14 26 54 -2 80 -12
11 -25 20 -30 20 -4 0 -8 4 -8 9 0 5 16 11 35 13 19 2 35 0 35 -4 0 -4 11 -10
25 -14 17 -4 23 -10 17 -18 -14 -17 -11 -48 5 -42 7 3 13 0 13 -6 0 -7 5 -6
15 2 11 9 15 9 15 1 0 -7 4 -10 9 -7 17 11 -19 100 -56 138 -20 21 -33 38 -27
38 5 0 15 -5 20 -10 7 -7 19 3 36 29 14 22 22 41 16 43 -14 5 -38 78 -26 78 6
0 3 12 -7 26 -9 15 -12 23 -6 20 19 -12 12 10 -9 29 -11 10 -17 21 -15 26 3 4
0 11 -7 16 -7 4 -13 15 -13 23 0 24 -45 22 -102 -5z m62 -25 c-3 -5 -13 -10
-21 -10 -8 0 -12 5 -9 10 3 6 13 10 21 10 8 0 12 -4 9 -10z m-73 -32 c-9 -9
-15 -9 -24 0 -9 9 -7 12 12 12 19 0 21 -3 12 -12z m58 -18 c-12 -22 -18 -24
-40 -10 -12 7 -10 11 10 19 37 15 42 13 30 -9z m12 -62 c-16 -16 -37 4 -28 28
6 16 8 16 23 1 13 -13 15 -19 5 -29z"/>
<path d="M802 1140 c0 -14 2 -19 5 -12 2 6 2 18 0 25 -3 6 -5 1 -5 -13z"/>
<path d="M822 1140 c0 -14 2 -19 5 -12 2 6 2 18 0 25 -3 6 -5 1 -5 -13z"/>
<path d="M640 1130 c0 -11 4 -20 8 -20 4 0 8 9 8 20 0 11 -4 20 -8 20 -4 0 -8
-9 -8 -20z"/>
<path d="M977 1130 c3 -11 9 -20 13 -20 5 0 6 9 3 20 -3 11 -9 20 -13 20 -5 0
-6 -9 -3 -20z"/>
<path d="M730 1106 c0 -8 5 -18 10 -21 6 -3 10 3 10 14 0 12 -4 21 -10 21 -5
0 -10 -6 -10 -14z"/>
<path d="M883 1103 c-4 -10 -11 -21 -17 -25 -8 -6 -6 -11 4 -17 12 -9 12 -11
-4 -17 -11 -4 -24 0 -34 10 -16 16 -16 17 1 10 12 -4 17 -1 17 11 0 10 -5 13
-12 9 -8 -5 -9 -2 -5 9 5 13 1 17 -14 17 -15 0 -19 -5 -15 -16 3 -8 2 -12 -4
-9 -6 3 -10 -1 -10 -10 0 -9 5 -13 10 -10 6 3 10 2 10 -4 0 -15 -41 -24 -53
-12 -8 8 -8 11 1 11 27 0 10 17 -18 18 -16 0 -30 -4 -30 -9 0 -5 7 -9 16 -9 8
0 12 -4 9 -10 -3 -5 -15 -10 -25 -10 -14 0 -18 5 -13 17 4 11 3 14 -5 9 -8 -4
-12 0 -12 10 0 14 -3 15 -12 6 -8 -8 -8 -15 0 -25 7 -8 16 -36 21 -63 8 -40 7
-51 -6 -57 -8 -5 -28 -29 -43 -54 l-29 -46 19 -27 c11 -16 20 -34 20 -42 0
-28 24 -38 92 -38 l68 0 0 -89 c0 -72 3 -90 16 -95 22 -9 24 -8 24 9 0 8 -7
15 -15 15 -12 0 -15 16 -15 80 l0 80 76 0 76 0 -7 -32 c-11 -51 -31 -83 -71
-115 -42 -33 -40 -47 8 -57 26 -5 37 -1 61 21 37 35 65 90 73 143 6 33 2 50
-21 91 -18 34 -25 58 -21 74 5 18 -1 33 -23 57 -24 27 -29 42 -27 76 1 25 11
54 24 72 25 33 27 40 11 40 -5 0 -7 -5 -3 -11 4 -7 1 -10 -7 -7 -8 3 -20 -2
-28 -10 -12 -12 -12 -15 0 -23 10 -6 7 -9 -13 -9 -15 0 -30 5 -33 10 -3 6 1
10 9 10 9 0 16 5 16 11 0 6 -6 9 -13 6 -10 -4 -13 2 -9 19 5 28 -6 32 -15 7z
m43 -114 c25 -20 0 -34 -35 -20 -30 13 -126 11 -170 -4 -19 -7 -22 -5 -19 11
2 11 15 22 33 26 44 10 174 1 191 -13z m-116 -164 l0 -85 -70 0 c-63 0 -70 2
-70 19 0 64 71 148 128 150 9 1 12 -22 12 -84z m91 55 c27 -20 51 -63 63 -112
l6 -28 -75 0 -75 0 0 86 0 86 27 -7 c15 -3 39 -15 54 -25z"/>
<path d="M763 876 c-38 -18 -36 -35 3 -33 33 2 50 17 18 17 -14 0 -14 3 -4 15
14 17 14 17 -17 1z"/>
<path d="M715 803 c2 -13 -1 -23 -6 -23 -6 0 -8 -4 -5 -9 4 -5 0 -11 -6 -14
-7 -3 13 -4 44 -3 62 1 82 16 23 16 -36 0 -50 22 -20 34 8 3 15 2 15 -2 0 -4
9 -8 20 -8 12 0 20 7 20 18 0 14 -8 17 -45 15 -40 -2 -44 -4 -40 -24z"/>
<path d="M835 880 c3 -5 8 -10 11 -10 2 0 4 5 4 10 0 6 -5 10 -11 10 -5 0 -7
-4 -4 -10z"/>
<path d="M884 863 c4 -7 2 -13 -3 -13 -36 0 -55 -18 -40 -36 6 -8 17 -14 23
-13 7 0 6 2 -1 6 -7 2 -13 12 -13 21 0 13 4 11 16 -6 8 -12 12 -27 8 -34 -5
-7 -2 -9 8 -5 9 3 21 0 27 -6 6 -6 11 -7 11 -1 0 5 -5 15 -12 22 -6 6 -13 22
-15 34 -3 20 -1 19 17 -7 11 -16 20 -38 20 -48 0 -15 -7 -17 -46 -14 -25 2
-47 0 -50 -5 -3 -4 22 -8 55 -8 l60 0 -9 29 c-11 39 -26 65 -46 82 -12 9 -15
9 -10 2z"/>
<path d="M640 1090 c0 -5 5 -10 10 -10 6 0 10 5 10 10 0 6 -4 10 -10 10 -5 0
-10 -4 -10 -10z"/>
<path d="M1090 965 c-18 -22 3 -46 23 -26 10 10 8 11 -7 5 -14 -5 -17 -3 -14
7 3 8 11 13 17 11 7 -1 10 2 6 8 -8 13 -10 13 -25 -5z"/>
<path d="M1225 920 c3 -5 11 -10 16 -10 6 0 7 5 4 10 -3 6 -11 10 -16 10 -6 0
-7 -4 -4 -10z"/>
<path d="M733 711 l-42 -6 18 -42 c11 -22 29 -44 40 -48 12 -3 21 -11 21 -16
0 -5 4 -9 9 -9 5 0 11 24 13 53 4 53 1 78 -11 75 -3 0 -25 -4 -48 -7z m44 -37
c-6 -48 -19 -59 -41 -35 -22 24 -14 60 8 42 11 -9 16 -9 22 0 5 8 3 9 -7 4
-12 -8 -12 -6 0 8 19 24 22 21 18 -19z"/>
<path d="M746 648 c3 -5 10 -6 15 -3 13 9 11 12 -6 12 -8 0 -12 -4 -9 -9z"/>
<path d="M852 710 c-21 -15 -5 -25 39 -25 32 0 49 4 49 13 0 6 -3 12 -7 13
-37 3 -76 3 -81 -1z"/>
<path d="M633 682 c-18 -2 -33 -7 -33 -12 0 -35 95 -174 114 -167 6 3 19 0 28
-5 40 -20 112 -27 146 -12 34 14 35 34 2 34 -35 0 -130 41 -130 56 0 8 -4 14
-8 14 -15 0 -30 -22 -25 -36 3 -9 -2 -14 -12 -14 -11 0 -15 -5 -11 -16 3 -8 2
-12 -4 -9 -16 10 -11 43 8 57 17 12 16 16 -13 63 -27 45 -33 50 -62 47z m148
-165 c-13 -13 -26 -3 -16 12 3 6 11 8 17 5 6 -4 6 -10 -1 -17z m69 -11 c0 -11
-19 -15 -25 -6 -3 5 1 10 9 10 9 0 16 -2 16 -4z"/>
<path d="M850 670 c-8 -5 -10 -10 -5 -10 6 0 3 -5 -5 -10 -11 -7 -1 -9 33 -7
47 2 68 17 23 17 -13 0 -26 4 -28 10 -2 6 -8 6 -18 0z"/>
<path d="M845 620 c-9 -15 13 -32 34 -25 12 3 19 10 16 15 -3 5 1 10 7 13 7 3
-2 5 -20 4 -18 0 -35 -3 -37 -7z"/>
<path d="M1230 561 c0 -6 7 -8 16 -4 12 4 15 2 12 -8 -3 -8 -11 -13 -17 -11
-6 1 -11 -3 -11 -9 0 -6 8 -9 18 -7 9 2 17 12 17 23 0 11 -8 21 -17 23 -10 2
-18 -1 -18 -7z"/>
<path d="M1396 554 c-3 -9 -3 -21 1 -27 4 -6 0 -8 -10 -4 -9 3 -19 1 -23 -5
-4 -6 -3 -8 4 -4 6 3 13 2 17 -3 3 -5 -3 -14 -12 -20 -10 -6 -12 -11 -6 -11 7
0 18 8 24 18 8 12 20 17 34 14 17 -3 25 2 30 17 3 11 3 25 0 31 -10 16 -52 12
-59 -6z m54 -9 c0 -9 -7 -18 -16 -22 -18 -7 -39 11 -30 26 11 17 46 13 46 -4z"/>
<path d="M1271 506 c-8 -10 -7 -17 3 -26 17 -13 36 -6 36 15 0 19 -27 26 -39
11z m26 -22 c-9 -9 -28 6 -21 18 4 6 10 6 17 -1 6 -6 8 -13 4 -17z"/>
<path d="M477 440 c-54 -32 -113 -60 -130 -62 l-32 -3 42 -29 c52 -35 71 -32
167 30 77 48 104 57 84 25 -9 -16 -8 -31 8 -77 26 -78 51 -89 204 -88 146 0
168 10 198 90 15 41 18 62 11 76 -14 26 0 23 67 -18 123 -76 126 -76 186 -36
l42 27 -40 5 c-22 3 -56 15 -75 27 -19 11 -61 37 -93 57 -83 50 -117 49 -156
-6 -37 -51 -38 -71 -3 -96 l27 -20 -39 -11 c-51 -14 -208 -14 -259 0 l-39 11
31 25 32 24 -25 48 c-41 81 -76 81 -208 1z"/>
<path d="M790 450 c0 -11 -7 -23 -15 -26 -8 -4 -15 -14 -15 -24 0 -10 7 -20
15 -24 8 -3 15 -1 15 3 0 5 -5 11 -12 13 -7 3 -8 9 -3 18 6 10 11 9 23 -6 13
-18 14 -18 7 3 -3 13 -3 28 0 33 10 17 35 -8 28 -27 -4 -11 -2 -14 5 -9 17 11
15 53 -4 60 -29 11 -44 6 -44 -14z"/>
<path d="M841 373 c-7 -13 -13 -15 -18 -7 -6 9 -11 8 -20 -1 -10 -10 -9 -16 3
-26 13 -11 18 -10 25 3 5 10 16 24 25 33 8 8 11 15 5 15 -5 0 -15 -8 -20 -17z"/>
</g>
</svg>
